<svg xmlns="http://www.w3.org/2000/svg" version="1.1" xmlns:xlink="http://www.w3.org/1999/xlink" xmlns:svgjs="http://svgjs.dev/svgjs" width="100%" height="100%" viewBox="0 0 1000 600"><rect width="1000" height="600" x="0" y="0" fill="white"/><g><rect width="333.3333333333333" height="333.3333333333333" y="210.91691729212124" fill="#7d141d" transform="matrix(0.6624457005346708,0,0,0.6624457005346708,0,49.87136543396507)" x="188.69465637207034"/><path d="M355.4037202020521 452.583583592122L355.4037202020521 452.583583592122Q335.82007496023607 452.583583592122 323.5273106309576 441.05381842810914Q311.20628707333594 429.5523124924394 311.20628707333594 408.27311355003314L311.20628707333594 408.27311355003314L311.20628707333594 400.3322703856027L330.08345160657274 400.3322703856027L330.08345160657274 408.27311355003314Q330.08345160657274 421.78102469806794 337.03522177899237 428.90235024054647Q343.9869919514119 435.99541655468187 355.4037202020521 435.99541655468187L355.4037202020521 435.99541655468187Q366.73567076766284 435.99541655468187 373.6874409400824 428.90235024054647Q380.639211112502 421.78102469806794 380.639211112502 408.27311355003314L380.639211112502 408.27311355003314L380.639211112502 302.5835995465814L399.51637564573883 302.5835995465814L399.51637564573883 408.27311355003314Q399.51637564573883 429.5523124924394 387.25187054480347 441.05381842810914Q374.9873654438682 452.583583592122 355.4037202020521 452.583583592122Z " fill="#f4efea" transform="matrix(0.6624457005346708,0,0,0.6624457005346708,0,49.87136543396507)"/><path d="M649.4424999496713 452.1889968831907L649.4424999496713 452.1889968831907Q629.910371019797 452.1889968831907 617.649943769443 440.6895616690656Q605.3613316288584 429.2183113451712 605.3613316288584 407.9950890014549L605.3613316288584 407.9950890014549L605.3613316288584 400.07513484662854L624.1888383029651 400.07513484662854L624.1888383029651 407.9950890014549Q624.1888383029651 421.467466531729 631.1223212997171 428.5700588698651Q638.055804296469 435.64446631777054 649.4424999496713 435.64446631777054L649.4424999496713 435.64446631777054Q660.7446409321816 435.64446631777054 667.6781239289335 428.5700588698651Q674.6116069256854 421.467466531729 674.6116069256854 407.9950890014549L674.6116069256854 407.9950890014549L674.6116069256854 302.58359953864124L693.4391135997922 302.58359953864124L693.4391135997922 407.9950890014549Q693.4391135997922 429.2183113451712 681.2068712396689 440.6895616690656Q668.9746288795457 452.1889968831907 649.4424999496713 452.1889968831907ZM772.0185875629807 452.58358534642053L772.0185875629807 452.58358534642053Q756.9396712895567 452.58358534642053 745.6093454168158 445.4528081180537Q734.2508346538442 438.3220308896869 727.9092343519369 425.44153605425754Q721.5676340500297 412.56104121882817 721.5676340500297 395.50918262925535L721.5676340500297 395.50918262925535Q721.5676340500297 378.17547513737554 727.9092343519369 365.23861052148476Q734.2508346538442 352.32993079582474 745.6093454168158 345.1709686772272Q756.9396712895567 338.0401914488604 772.0185875629807 338.0401914488604L772.0185875629807 338.0401914488604Q787.1820585070966 338.0401914488604 798.5687541602989 345.1709686772272Q809.9554498135013 352.32993079582474 816.2970501154085 365.23861052148476Q822.6386504173157 378.17547513737554 822.6386504173157 395.50918262925535L822.6386504173157 395.50918262925535Q822.6386504173157 412.56104121882817 816.2970501154085 425.44153605425754Q809.9554498135013 438.3220308896869 798.5687541602989 445.4528081180537Q787.1820585070966 452.58358534642053 772.0185875629807 452.58358534642053ZM772.0185875629807 436.630937475845L772.0185875629807 436.630937475845Q783.207988984568 436.630937475845 790.4515057738577 430.8812198687824Q797.6668376729166 425.15968715195055 801.1335791712926 415.7741187051278Q804.6003206696685 406.4167351485358 804.6003206696685 395.50918262925535L804.6003206696685 395.50918262925535Q804.6003206696685 384.5170754392828 801.1335791712926 375.04695232176795Q797.6668376729166 365.60501409448386 790.4515057738577 359.7989267069599Q783.207988984568 353.9928393194359 772.0185875629807 353.9928393194359L772.0185875629807 353.9928393194359Q760.9137408120853 353.9928393194359 753.7829635837185 359.7989267069599Q746.6521863553517 365.60501409448386 743.1854448569758 375.0187674315373Q739.7187033585998 384.4325207685907 739.7187033585998 395.50918262925535L739.7187033585998 395.50918262925535Q739.7187033585998 406.4167351485358 743.1854448569758 415.7741187051278Q746.6521863553517 425.15968715195055 753.7829635837185 430.8812198687824Q760.9137408120853 436.630937475845 772.0185875629807 436.630937475845ZM900.0343589908148 452.58358534642053L900.0343589908148 452.58358534642053Q889.5213949347641 452.58358534642053 883.0952399621648 448.9759193968911Q876.6409000993348 445.3682534473616 873.1741586009588 440.745931449527Q869.7074171025828 436.1517943419231 867.819029457126 433.0796413067769L867.819029457126 433.0796413067769L865.8460871409771 433.0796413067769L865.8460871409771 450.2160545670418L848.5969343197894 450.2160545670418L848.5969343197894 302.58359953864124L866.4379698358218 302.58359953864124L866.4379698358218 357.1777319155049L867.819029457126 357.1777319155049Q869.7074171025828 354.19013355105085 873.0896039302667 349.680551114139Q876.4436058677198 345.1709686772272 882.7852061696271 341.61967250815917Q889.1268064715343 338.0401914488604 899.9498043201228 338.0401914488604L899.9498043201228 338.0401914488604Q913.8167703136265 338.0401914488604 924.3579192599079 344.9736744456123Q934.92725309642 351.9071574423642 940.9024498253281 364.7594673875629Q946.905831444467 377.58359244253086 946.905831444467 395.11459416602554L946.905831444467 395.11459416602554Q946.905831444467 412.75833545044304 940.9588196057895 425.6388302858724Q935.0118077671121 438.5193251213018 924.4706588208306 445.5655476789765Q913.9013249843186 452.58358534642053 900.0343589908148 452.58358534642053ZM897.3567944188984 436.630937475845L897.3567944188984 436.630937475845Q907.7570189140263 436.630937475845 914.7468716912396 431.0503292101666Q921.736724468453 425.44153605425754 925.2598357472903 415.9714129367427Q928.7829470261275 406.5294747094586 928.7829470261275 394.91729993441066L928.7829470261275 394.91729993441066Q928.7829470261275 383.41786472028554 925.3162055277517 374.17322072461633Q921.8212791391451 364.9003918387164 914.8596112521624 359.4607080241915Q907.8697584749491 353.9928393194359 897.3567944188984 353.9928393194359L897.3567944188984 353.9928393194359Q887.1538641553855 353.9928393194359 880.2203811586336 359.1506742316538Q873.2868981618816 364.30850914387173 869.7637868830442 373.4685984688488Q866.2406756042069 382.628687793826 866.2406756042069 394.91729993441066L866.2406756042069 394.91729993441066Q866.2406756042069 407.20591207499535 869.8201566635056 416.6196654120488Q873.3714528325737 426.03341874910217 880.361305609787 431.33217811247357Q887.3511583870003 436.630937475845 897.3567944188984 436.630937475845ZM1010.5191286951543 452.58358534642053L1010.5191286951543 452.58358534642053Q999.1324330419519 452.58358534642053 990.2541926192819 449.28595318942877Q981.3759521966117 445.9601361422063 975.6262345895491 439.42124160868417Q969.9047018727173 432.88234707516204 967.9035746663377 423.3558541771858L967.9035746663377 423.3558541771858L984.8426936949876 419.29722998396517Q987.238409364597 428.4291344187116 993.8336736785806 432.6850528435471Q1000.4007531023334 436.9409712683826 1010.3218344635394 436.9409712683826L1010.3218344635394 436.9409712683826Q1021.9058243483566 436.9409712683826 1028.811122454878 431.98043058777967Q1035.688235671168 427.0198899071766 1035.688235671168 420.19914647134755L1035.688235671168 420.19914647134755Q1035.688235671168 414.449428864285 1031.685981258409 410.64446868314064Q1027.6555419554193 406.8113236117656 1019.4255540080552 404.9229359663088L1019.4255540080552 404.9229359663088L1000.992635797178 400.58246287078117Q985.941904413985 397.0029818114824 978.6138329540032 389.5339859003472Q971.2857614940215 382.0368050989813 971.2857614940215 370.3400756532413L971.2857614940215 370.3400756532413Q971.2857614940215 360.84176764549574 976.6408906378543 353.57006596597546Q981.9678348914564 346.2701793962245 991.2406637773563 342.1551854225424Q1000.5134926632562 338.0401914488604 1012.2947767796884 338.0401914488604L1012.2947767796884 338.0401914488604Q1023.7096573231214 338.0401914488604 1031.685981258409 341.47874805700565Q1039.6623051936967 344.88911977492023 1044.6510307645303 350.8925013940591Q1049.6679412255949 356.8676981229672 1052.1482115658964 364.7030976071015L1052.1482115658964 364.7030976071015L1035.9700845734756 368.8744613612449Q1033.7152933550192 362.9274495225675 1028.416533991648 358.05146351265654Q1023.0895897380459 353.20366239297636 1012.4075163406111 353.20366239297636L1012.4075163406111 353.20366239297636Q1002.4864349794051 353.20366239297636 995.8911706654216 357.7696146103496Q989.3240912416687 362.3355668277228 989.3240912416687 369.26904982447473L989.3240912416687 369.26904982447473Q989.3240912416687 375.41335589476705 993.7773038981192 379.13376140521933Q998.2305165545696 382.82598202544085 1007.9543036841607 385.1089581341275L1007.9543036841607 385.1089581341275L1024.696128481196 389.083027656656Q1039.746859864389 392.63432382572404 1046.9903766536786 400.13150462708995Q1054.2057085527376 407.60050053822516 1054.2057085527376 419.0153810816582L1054.2057085527376 419.0153810816582Q1054.2057085527376 428.7109833210186 1048.7096549577514 436.2927187930766Q1043.213601362765 443.8744542651346 1033.3488897820203 448.2431122508929Q1023.5123630915065 452.58358534642053 1010.5191286951543 452.58358534642053ZM1066.2970264617074 339.44943596039536L1123.568723410487 339.44943596039536L1123.568723410487 354.6974615752034L1066.2970264617074 354.6974615752034L1066.2970264617074 339.44943596039536ZM1082.95429658805 422.8767110432639L1082.95429658805 313.0683787044612L1100.7953321040827 313.0683787044612L1100.7953321040827 421.467466531729Q1100.7953321040827 428.9082775526335 1103.8111153587674 432.31864927054806Q1106.8268986134522 435.7572058786933 1113.873121171127 435.7572058786933L1113.873121171127 435.7572058786933Q1115.5642145849688 435.7572058786933 1118.1854093764236 435.36261741546355Q1120.806604167879 434.96802895223374 1122.9768407156425 434.573440489004L1122.9768407156425 434.573440489004L1126.6408764456337 449.6241718721971Q1123.878757203025 450.6106430302716 1120.3556459241877 451.1179710544242Q1116.8325346453503 451.59711418834604 1113.3657931469743 451.59711418834604L1113.3657931469743 451.59711418834604Q1098.991499129318 451.59711418834604 1090.9869903037993 444.01537871628807Q1082.95429658805 436.43364324423004 1082.95429658805 422.8767110432639L1082.95429658805 422.8767110432639ZM1192.931738268237 452.58358534642053L1192.931738268237 452.58358534642053Q1176.8945357269695 452.58358534642053 1165.254176061691 445.4528081180537Q1153.6138163964124 438.3220308896869 1147.300400984736 425.5542756151803Q1141.01517046329 412.75833545044304 1141.01517046329 395.7064768608702L1141.01517046329 395.7064768608702Q1141.01517046329 378.6828031615281 1147.1594765335822 365.689568765176Q1153.3037826038744 352.7245192590545 1164.5495538059236 345.3682629088421Q1175.7953250079722 338.0401914488604 1190.8460563911653 338.0401914488604L1190.8460563911653 338.0401914488604Q1199.6679270333743 338.0401914488604 1208.2361336635067 340.9714200328531Q1216.8043402936391 343.90264861684574 1223.7941930708525 350.38517336990645Q1230.784045848066 356.8676981229672 1234.9554096022093 367.46521684971Q1239.1267733563527 378.0909204666835 1239.1267733563527 393.45168564241436L1239.1267733563527 393.45168564241436L1239.1267733563527 400.8643117730881L1153.1064883722597 400.8643117730881L1153.1064883722597 385.8135803898949L1229.4875408974535 385.8135803898949L1221.1729982793977 391.3660037653426Q1221.1729982793977 380.45845124606217 1217.762626561483 371.9747992866218Q1214.3522548435685 363.5193322174121 1207.6160660784312 358.69971598796263Q1200.8516924230635 353.90828464874386 1190.8460563911653 353.90828464874386L1190.8460563911653 353.90828464874386Q1180.8404203592672 353.90828464874386 1173.7096431309005 358.81245554888545Q1166.5788659025338 363.71662644902705 1162.8020906116203 371.580210823392Q1159.0535002109373 379.4719800879877 1159.0535002109373 388.49114496181136L1159.0535002109373 388.49114496181136L1159.0535002109373 398.4967809937094Q1159.0535002109373 410.7853931342941 1163.3094186357725 419.3535997644266Q1167.5653370606083 427.92180639455904 1175.259812093589 432.31864927054806Q1182.926102236339 436.7436770367678 1193.0444778291599 436.7436770367678L1193.0444778291599 436.7436770367678Q1199.583372362682 436.7436770367678 1204.938501506515 434.8552893913109Q1210.265445760117 432.9669017458541 1214.1549606119534 429.16194156470976Q1218.0162905735592 425.3569813835654 1220.101972450631 419.691818447195L1220.101972450631 419.691818447195L1237.322940381588 424.45506489618305Q1234.7581153705946 432.7696075142392 1228.613809300302 439.1112078161465Q1222.4695032300096 445.4528081180537 1213.3939685757246 449.0322891773524Q1204.3466188116704 452.58358534642053 1192.931738268237 452.58358534642053ZM1282.5033194213984 450.2160545670418L1264.6904687955966 450.2160545670418L1264.6904687955966 339.44943596039536L1281.9114367265533 339.44943596039536L1281.9114367265533 356.4731096597374L1283.095202116243 356.4731096597374Q1286.167355151389 348.0458274807585 1294.059124415985 342.944362349002Q1301.9227087903496 337.8428972172455 1311.8437901515558 337.8428972172455L1311.8437901515558 337.8428972172455Q1313.8167324677047 337.8428972172455 1316.5506668200824 337.9556367781683Q1319.28460117246 338.0401914488604 1320.8629550253795 338.1529310097832L1320.8629550253795 338.1529310097832L1320.8629550253795 356.07852119650767Q1320.0737780989198 355.88122696489273 1316.8888855028508 355.486638501663Q1313.7321777970128 355.0920500384332 1310.152696737714 355.0920500384332L1310.152696737714 355.0920500384332Q1302.2327425828876 355.0920500384332 1295.9475120614416 358.41786708565564Q1289.634096649765 361.7436841328781 1286.0828004806972 367.5215866301714Q1282.5033194213984 373.32767401769536 1282.5033194213984 380.853039709292L1282.5033194213984 380.853039709292L1282.5033194213984 450.2160545670418Z " fill="#3399ff" transform="matrix(0.6624457005346708,0,0,0.6624457005346708,0,49.87136543396507)"/></g></svg>